<?xml version="1.0" standalone="no"?>
<!DOCTYPE svg PUBLIC "-//W3C//DTD SVG 20010904//EN"
 "http://www.w3.org/TR/2001/REC-SVG-20010904/DTD/svg10.dtd">
<svg version="1.0" xmlns="http://www.w3.org/2000/svg"
 width="700.000000pt" height="700.000000pt" viewBox="0 0 700.000000 700.000000"
 preserveAspectRatio="xMidYMid meet">
<metadata>
Created by potrace 1.14, written by Peter Selinger 2001-2017
</metadata>
<g transform="translate(0.000000,700.000000) scale(0.100000,-0.100000)"
fill="#000000" stroke="none">
<path d="M710 6576 c-69 -18 -113 -43 -160 -89 -45 -44 -93 -135 -104 -201
-32 -173 39 -403 174 -568 212 -261 525 -351 713 -207 158 121 187 360 74 609
-90 198 -289 385 -468 441 -77 24 -170 30 -229 15z"/>
<path d="M1838 6138 c-3 -11 -2 -863 1 -919 1 -13 44 -32 121 -54 3 -1 12 -4
20 -8 17 -6 193 -67 455 -157 99 -34 236 -81 305 -105 142 -49 396 -136 485
-167 33 -11 69 -24 80 -28 11 -5 70 -25 130 -46 61 -20 153 -52 205 -70 227
-77 432 -148 665 -229 138 -48 282 -97 320 -110 39 -13 162 -56 275 -95 113
-39 252 -87 310 -107 58 -19 114 -39 125 -43 20 -9 226 -80 520 -179 83 -28
159 -55 170 -60 11 -5 29 -12 40 -14 11 -3 119 -40 240 -82 121 -42 262 -90
313 -107 103 -34 117 -47 26 -24 -55 15 -381 94 -414 101 -8 2 -80 19 -160 39
-80 19 -248 60 -375 91 -126 31 -286 70 -355 86 -69 17 -235 57 -370 90 -135
33 -254 62 -265 64 -11 3 -56 14 -100 25 -162 40 -1075 262 -1135 275 -8 2
-154 38 -325 80 -170 42 -317 78 -325 80 -36 8 -241 58 -435 105 -115 29 -217
53 -225 55 -8 2 -82 20 -164 39 -82 20 -151 34 -154 31 -6 -6 -7 -933 -1 -939
5 -4 157 -14 344 -22 72 -2 157 -7 190 -9 33 -2 116 -7 185 -10 69 -3 157 -8
195 -10 39 -3 129 -7 200 -10 72 -3 164 -7 205 -10 41 -3 125 -8 185 -10 61
-3 146 -8 190 -10 44 -2 139 -7 210 -10 72 -4 164 -8 205 -10 41 -3 125 -7
185 -10 61 -3 146 -7 190 -10 44 -2 139 -7 210 -10 72 -3 157 -8 190 -10 33
-2 116 -7 185 -10 69 -3 157 -7 195 -10 39 -2 129 -7 200 -10 72 -3 166 -8
210 -10 44 -3 130 -7 190 -10 61 -3 146 -7 190 -10 44 -2 136 -7 205 -10 69
-4 157 -8 195 -10 39 -2 131 -6 205 -10 74 -4 151 -8 170 -10 19 -2 42 2 50 8
13 10 13 10 2 -4 -9 -13 -33 -17 -100 -19 -87 -2 -106 -3 -327 -15 -66 -3
-156 -8 -200 -10 -44 -2 -127 -6 -185 -9 -58 -4 -152 -8 -210 -11 -170 -8
-299 -15 -385 -20 -44 -3 -132 -7 -195 -10 -63 -3 -153 -7 -200 -10 -47 -3
-137 -7 -200 -10 -63 -3 -149 -7 -190 -10 -41 -2 -127 -7 -190 -10 -63 -3
-153 -8 -200 -10 -47 -3 -137 -7 -200 -10 -63 -3 -151 -7 -195 -10 -91 -5
-242 -13 -395 -20 -212 -10 -307 -15 -395 -20 -49 -2 -142 -7 -205 -10 -63 -3
-146 -7 -185 -10 -38 -3 -128 -7 -200 -10 -353 -15 -520 -26 -525 -35 -7 -11
-4 -929 3 -936 3 -3 61 8 129 25 67 16 236 58 373 91 138 34 257 63 265 65 8
2 99 24 202 49 103 25 199 48 212 50 14 3 29 7 34 10 5 3 22 7 38 10 16 3 74
17 129 30 55 14 165 41 245 60 80 19 258 63 395 96 138 34 257 63 267 65 9 2
92 22 185 45 92 23 175 43 183 45 8 2 56 13 105 25 50 12 97 23 105 25 8 2
154 38 325 79 170 42 319 78 330 80 11 3 124 30 250 61 127 31 237 58 245 60
12 3 124 30 285 69 6 2 21 6 35 9 14 4 129 32 255 62 127 31 239 59 250 62 44
12 -2 -15 -50 -30 -27 -8 -162 -54 -300 -101 -137 -48 -257 -89 -265 -91 -8
-2 -42 -14 -75 -26 -33 -11 -177 -62 -320 -111 -704 -243 -791 -273 -1270
-438 -77 -26 -252 -87 -390 -135 -137 -47 -275 -95 -305 -105 -30 -10 -140
-48 -245 -84 -104 -37 -221 -78 -260 -91 -38 -12 -189 -64 -335 -115 -230 -80
-533 -184 -924 -319 l-109 -38 0 -474 c1 -261 2 -475 2 -477 1 -1 18 8 39 21
20 13 75 43 122 66 47 24 90 47 95 51 6 4 60 33 120 65 61 32 274 147 475 255
201 109 410 221 465 250 55 29 147 79 205 110 58 32 146 79 195 105 50 26 171
91 270 145 99 53 221 118 270 145 50 27 108 58 130 70 22 12 76 41 120 65 44
23 107 57 140 75 33 18 101 54 150 80 50 26 104 56 120 65 17 9 71 39 120 65
88 47 294 158 405 218 134 72 444 238 535 287 55 29 114 60 130 70 17 10 75
41 130 70 55 29 123 65 150 80 28 15 86 47 130 70 44 24 118 64 165 89 47 26
120 65 162 86 73 37 105 65 74 65 -8 0 -16 4 -18 8 -1 5 -48 32 -103 62 -55
29 -338 181 -630 338 -291 156 -559 300 -595 320 -36 19 -92 49 -125 67 -33
18 -94 51 -135 73 -41 22 -192 103 -335 179 -143 77 -305 164 -360 193 -55 29
-104 56 -110 60 -5 4 -55 31 -110 60 -55 29 -147 79 -205 110 -58 31 -154 83
-215 115 -60 32 -123 66 -140 75 -16 9 -70 38 -120 65 -164 88 -479 257 -540
290 -33 18 -154 83 -270 145 -115 62 -235 126 -265 143 -30 17 -86 47 -125 67
-38 20 -101 54 -140 75 -38 21 -92 50 -120 65 -129 70 -243 130 -248 130 -2 0
-7 -6 -9 -12z m4912 -2642 c0 -3 -4 -8 -10 -11 -5 -3 -10 -1 -10 4 0 6 5 11
10 11 6 0 10 -2 10 -4z"/>
<path d="M781 4864 c-295 -80 -430 -426 -281 -725 51 -103 89 -150 175 -218
376 -296 857 -29 793 440 -30 221 -208 432 -418 493 -78 23 -203 28 -269 10z"/>
<path d="M955 3202 c-116 -12 -244 -77 -336 -171 -114 -116 -167 -234 -176
-391 -7 -116 7 -187 53 -279 79 -158 245 -253 429 -245 342 13 622 402 533
739 -61 229 -268 372 -503 347z"/>
<path d="M995 1541 c-292 -79 -546 -405 -554 -711 -5 -188 60 -315 194 -381
170 -84 404 -14 591 176 165 167 255 370 248 561 -6 166 -68 275 -191 336 -58
28 -79 33 -148 34 -47 1 -104 -5 -140 -15z"/>
</g>
</svg>
