<?xml version="1.0" encoding="utf-8"?>
<!-- Generator: Adobe Illustrator 27.1.1, SVG Export Plug-In . SVG Version: 6.00 Build 0)  -->
<svg version="1.1" id="Layer_1" xmlns="http://www.w3.org/2000/svg" xmlns:xlink="http://www.w3.org/1999/xlink" x="0px" y="0px"
	 viewBox="0 0 64 64" style="enable-background:new 0 0 64 64;" xml:space="preserve">
<style type="text/css">
	.st0{fill:#FFFFFF;}
</style>
<g>
	<g>
		<path class="st0" d="M13.5,10.7c0,2.5-1.9,4.1-4.4,3.4C6.4,13.4,4,10.3,4,7.4S6.4,3,9.1,4.2C11.6,5.3,13.5,8.2,13.5,10.7z"/>
	</g>
	<g>
		<path class="st0" d="M13.5,24.9c0,2.5-1.9,4.5-4.4,4.4C6.4,29.2,4,26.7,4,23.8s2.4-4.9,5.1-4.3C11.6,19.9,13.5,22.4,13.5,24.9z"/>
	</g>
	<g>
		<path class="st0" d="M13.5,39.1c0,2.5-1.9,5-4.4,5.5C6.4,45.1,4,43.2,4,40.2s2.4-5.4,5.1-5.5C11.6,34.6,13.5,36.6,13.5,39.1z"/>
	</g>
	<g>
		<path class="st0" d="M13.5,53.3c0,2.5-1.9,5.4-4.4,6.5C6.4,61,4,59.6,4,56.6c0-2.9,2.4-6,5.1-6.7C11.6,49.2,13.5,50.7,13.5,53.3z"
			/>
	</g>
	<g>
		<polygon class="st0" points="62,32 16.8,16.4 16.8,7.7 62,32 		"/>
	</g>
	<g>
		<polygon class="st0" points="62,32 16.8,29.7 16.8,21 62,32 		"/>
	</g>
	<g>
		<polygon class="st0" points="62,32 16.8,43 16.8,34.3 62,32 		"/>
	</g>
	<g>
		<polygon class="st0" points="62,32 16.8,56.3 16.8,47.6 62,32 		"/>
	</g>
</g>
</svg>
